<?xml version="1.0" encoding="UTF-8" standalone="no"?>
<!-- Created with Inkscape (http://www.inkscape.org/) -->

<svg
   version="1.1"
   id="svg1"
   width="999.03998"
   height="1413.12"
   viewBox="0 0 999.03998 1413.12"
   xmlns="http://www.w3.org/2000/svg"
   xmlns:svg="http://www.w3.org/2000/svg">
  <defs
     id="defs1" />
  <g
     id="g1">
    <path
       style="fill:#ffffff"
       d="M 0.32000405,722.97254 V 16.732543 l 499.27997595,0.0799 499.28,0.0799 -499.12,0.0802 -499.11997595,0.08021 V 722.97254 1428.8924 l 499.11997595,0.08 499.12,0.08 -499.28,0.08 -499.27997595,0.08 z M 246.71999,1119.568 c -0.44,-0.065 -1.88,-0.2706 -3.2,-0.4578 -3.08468,-0.4374 -7.07125,-1.4786 -9.16842,-2.3945 -5.1196,-2.236 -7.59444,-8.3947 -7.40064,-18.417 l 0.0891,-4.6061 h 4.95999 4.96 l 0.20827,4.64 c 0.22446,5.0008 0.57789,7.0511 1.54081,8.9386 1.44345,2.8294 3.18216,3.1988 15.53092,3.3001 10.47176,0.086 12.42557,-0.093 15.08703,-1.3815 2.62605,-1.2712 3.70972,-4.4618 3.74199,-11.0172 0.0226,-4.601 -0.42602,-7.2661 -1.48869,-8.8431 -1.68909,-2.5064 -4.37007,-3.0956 -15.34033,-3.3713 l -8.24,-0.207 v -4.3797 -4.3798 l 4.3706,-0.2096 c 2.40383,-0.1153 5.89583,-0.2121 7.76,-0.2152 3.72029,-0.01 7.22282,-0.6125 8.7834,-1.5207 1.71869,-1.0002 2.50192,-3.5439 2.69253,-8.7448 0.2909,-7.9371 -0.86821,-10.7761 -4.90881,-12.0232 -1.65725,-0.5115 -3.09386,-0.5857 -11.33772,-0.5857 -8.01736,0 -9.74642,0.085 -11.47327,0.5619 -4.29728,1.1876 -5.13882,2.5661 -5.51241,9.0299 -0.14267,2.4685 -0.26726,4.8842 -0.27686,5.3682 l -0.0175,0.88 h -4.81004 c -4.16738,0 -4.83701,-0.07 -5.01189,-0.526 -0.33305,-0.8679 0.48836,-9.4022 1.15633,-12.0139 2.19654,-8.5884 6.80748,-11.6419 18.79206,-12.4446 5.15787,-0.3454 15.29022,0.059 19.63354,0.7838 9.36142,1.562 11.83891,3.414 13.82856,10.3373 0.6354,2.2109 0.71964,3.2324 0.72108,8.7434 0.002,6.5878 -0.32962,8.7365 -1.78801,11.5952 -0.96161,1.8849 -2.83892,3.7897 -4.49135,4.557 l -1.48972,0.6918 1.98498,0.8647 c 5.02391,2.1887 6.78421,5.527 7.13719,13.5356 0.21335,4.8404 -0.21243,8.9491 -1.37917,13.3088 -1.89396,7.0771 -5.46712,9.3587 -16.39746,10.47 -3.03717,0.3089 -17.37237,0.4074 -19.2461,0.1324 z m 18.9261,-0.7724 c 7.41248,-0.7537 11.0016,-2.0112 13.42089,-4.7024 2.65002,-2.9479 3.96798,-8.4443 3.97099,-16.5606 0.002,-4.7252 -0.0908,-5.7343 -0.70468,-7.6801 -1.35835,-4.3055 -3.29427,-6.2851 -7.5333,-7.703 -0.836,-0.2796 -1.52,-0.6791 -1.52,-0.8876 0,-0.2086 0.72292,-0.6359 1.60647,-0.9498 4.47763,-1.5903 6.60904,-5.8838 6.9405,-13.9811 0.38082,-9.303 -1.52116,-15.3274 -5.62131,-17.8052 -2.98694,-1.805 -8.5059,-2.8558 -17.41299,-3.3152 -13.01872,-0.6715 -21.21994,0.8292 -24.95745,4.5667 -1.45434,1.4543 -3.1249,4.873 -3.86784,7.9152 -0.48275,1.9768 -1.16653,7.9293 -1.16711,10.16 l -2.7e-4,1.04 h 4.32 c 4.2615,0 4.32024,-0.01 4.33746,-0.72 0.01,-0.396 0.13551,-2.7644 0.27981,-5.263 0.29324,-5.0776 0.69616,-6.2883 2.60526,-7.8281 2.17701,-1.7558 4.19815,-2.0289 15.01747,-2.0289 8.56779,0 9.99279,0.072 11.66568,0.588 3.9942,1.2325 5.2967,3.9781 5.29191,11.1552 -0.004,6.3778 -0.92609,9.6334 -3.08359,10.89 -1.57536,0.9176 -5.07323,1.5151 -8.914,1.5225 -1.936,0 -5.356,0.1005 -7.6,0.215 l -4.08,0.2081 v 3.7906 3.7906 l 5.04,0.01 c 6.5029,0.012 12.59473,0.4721 14.72451,1.112 2.06748,0.6212 3.68172,1.9881 4.36523,3.6964 0.88181,2.2039 1.27286,7.1046 0.88157,11.0481 -0.94526,9.5265 -3.26435,10.6534 -21.01131,10.2101 -9.43282,-0.2356 -10.90863,-0.4249 -12.74838,-1.6347 -2.29406,-1.5085 -3.41162,-5.5391 -3.41162,-12.3043 v -3.1768 h -4.5203 -4.52031 l 0.16587,5.52 c 0.23612,7.8581 1.41257,11.64 4.54149,14.5992 1.41049,1.3339 2.13783,1.7275 4.72254,2.5555 2.62533,0.841 6.46988,1.6365 10.01071,2.0715 2.2384,0.2749 15.72078,0.1865 18.7661,-0.1232 z m 24.03256,-36.6889 0.0813,-37.0542 16.32,-0.094 c 8.976,-0.052 18.71213,0.056 21.63584,0.2392 11.45194,0.7172 17.26413,3.5644 20.68017,10.1305 2.83175,5.4429 3.89477,11.0911 4.14885,22.044 0.33382,14.3906 -1.1827,25.2591 -4.51215,32.3377 -1.92393,4.0903 -5.65414,6.8836 -11.40201,8.538 -2.32537,0.6693 -3.00067,0.6911 -24.71204,0.8004 l -22.32134,0.1124 z m 47.05973,35.3357 c 3.81825,-1.189 5.76497,-2.2287 7.83083,-4.1823 2.08362,-1.9704 3.22763,-4.1254 4.54598,-8.5631 2.21848,-7.4677 3.07022,-15.8147 2.78826,-27.3245 -0.25255,-10.3093 -1.15809,-15.3559 -3.74727,-20.8839 -3.18602,-6.8023 -9.00868,-9.8687 -20.18847,-10.632 -2.53424,-0.173 -12.05972,-0.3167 -21.16772,-0.3194 h -16.56 v 36.4945 36.4946 l 21.84,-0.1008 21.84,-0.1008 z m -37.53839,-35.4437 v -28.5369 l 14.96,0.1693 c 15.26468,0.1727 16.57885,0.2729 20.55038,1.5662 1.59851,0.5206 2.44426,1.0481 3.71079,2.3146 3.21617,3.2162 3.94789,7.0054 4.20598,21.7806 0.33337,19.0848 -0.95919,25.1277 -6.16665,28.8301 -2.84466,2.0224 -3.94246,2.139 -21.5005,2.2835 l -15.76,0.1296 z m 30.56,27.5181 c 3.55223,-0.5124 5.54053,-1.273 7.17881,-2.7459 4.24371,-3.8155 5.36668,-9.9291 5.04732,-27.4784 -0.30263,-16.63 -1.47028,-20.7004 -6.59839,-23.0018 -3.75763,-1.6863 -5.37086,-1.8412 -21.06774,-2.0229 l -14.48,-0.1676 v 27.8762 27.8762 l 13.84,-0.01 c 7.612,0 14.848,-0.1518 16.08,-0.3295 z m 59.11869,-27.4243 0.081,-37.04 h 7.9654 7.9655 l 12.4292,29.6 c 6.8361,16.2801 12.4732,29.7247 12.5269,29.877 0.054,0.1523 5.6952,-13.0237 12.5368,-29.2801 6.8416,-16.2563 12.5797,-29.7394 12.7515,-29.9624 0.2403,-0.3121 2.126,-0.3858 8.1884,-0.32 l 7.8763,0.086 0.081,37.04 0.081,37.0401 h -5.2798 -5.2797 l -0.082,-30.4421 -0.082,-30.442 -8.6977,20.762 c -4.7838,11.4192 -10.5263,25.1181 -12.7612,30.4421 l -4.0634,9.68 h -5.047 -5.047 l -8.704,-20.4 c -4.7872,-11.2201 -10.5975,-24.8333 -12.9118,-30.2516 l -4.2079,-9.8515 -0.082,30.2515 -0.082,30.2516 h -5.1197 -5.1197 z m 9.5213,5.52 c 0,-24.4927 0.083,-30.8792 0.4,-30.8761 0.22,0 1.5818,2.7741 3.0262,6.16 1.4444,3.3858 6.2466,14.6521 10.6715,25.0361 4.425,10.3841 9.1634,21.4721 10.5297,24.6401 l 2.4842,5.76 h 4.5653 4.5652 l 2.1588,-5.12 c 1.1873,-2.816 4.933,-11.744 8.3238,-19.84 3.3907,-8.0961 7.375,-17.6001 8.8538,-21.1201 1.4789,-3.52 3.5719,-8.524 4.6511,-11.12 1.1303,-2.7189 2.142,-4.72 2.3863,-4.72 0.3492,0 0.4241,5.4795 0.4241,31.04 v 31.0401 h 4.64 4.64 v -36.4859 -36.4858 l -7.5355,0.086 -7.5354,0.086 -4.1821,9.92 c -2.3002,5.456 -4.7239,11.216 -5.3861,12.8 -0.6622,1.584 -3.7582,8.928 -6.8799,16.32 -3.1218,7.3921 -6.2162,14.7361 -6.8764,16.3201 -1.7302,4.1509 -1.984,4.64 -2.4077,4.64 -0.2093,0 -1.3612,-2.34 -2.56,-5.2 -2.3142,-5.5211 -5.3216,-12.6914 -8.6237,-20.5601 -7.7492,-18.4656 -9.7822,-23.3073 -11.6902,-27.84 -1.1854,-2.816 -2.2567,-5.444 -2.3807,-5.84 -0.2253,-0.7198 -0.2278,-0.72 -7.7239,-0.72 h -7.4984 v 36.48 36.4801 h 4.48 4.48 z m 76.8,31.0118 c 0,-0.7832 26.9485,-73.2141 27.3415,-73.4869 0.1862,-0.1293 3.1649,-0.2373 6.6193,-0.24 4.6516,0 6.3609,0.099 6.5895,0.3951 0.4022,0.5213 27.931,72.9133 27.9303,73.4477 -5e-4,0.3176 -1.2107,0.3882 -5.4835,0.32 l -5.4828,-0.088 -2.7946,-7.36 -2.7946,-7.36 h -17.7113 -17.7112 l -2.7629,7.36 -2.7629,7.36 -5.4884,0.088 c -4.9031,0.078 -5.4884,0.032 -5.4884,-0.4359 z m 13.1648,-7.5755 2.7649,-7.4362 17.9991,-0.083 c 10.6838,-0.049 18.1439,0.038 18.3552,0.2132 0.1958,0.1627 1.58,3.5454 3.076,7.5171 l 2.72,7.2212 4.8731,0.01 4.8732,0.01 -0.3202,-0.72 c -0.1762,-0.396 -6.4282,-16.776 -13.8934,-36.4001 l -13.5732,-35.68 h -6.1733 -6.1734 l -13.0316,35.04 c -7.1674,19.2721 -13.2456,35.6521 -13.507,36.4001 l -0.4753,1.36 h 4.8605 4.8606 z m 5.7066,-15.6762 c -0.012,-0.5399 14.4369,-40.2899 14.8351,-40.8137 0.1729,-0.2274 0.4274,-0.2994 0.5654,-0.16 0.3424,0.3458 15.0081,40.3182 15.0081,40.9056 0,0.4042 -2.0735,0.4681 -15.2,0.4681 -11.9421,0 -15.2018,-0.086 -15.2086,-0.4 z m 29.1134,-1.92 c -0.3484,-0.924 -3.6303,-9.8476 -7.293,-19.8301 l -6.6595,-18.1499 -6.6649,18.3099 c -3.6656,10.0705 -6.9288,18.9941 -7.2514,19.8301 l -0.5867,1.52 h 14.5445 14.5444 z m 24.4139,-11.3601 0.081,-37.04 h 5.12 5.12 l 0.083,15.76 0.083,15.76 2.7969,-0.015 2.797,-0.015 15.0211,-15.8251 15.0211,-15.825 h 6.509 c 5.4231,0 6.5389,0.078 6.6889,0.4691 0.1197,0.3119 -5.4571,6.3139 -16.65,17.9195 -9.2565,9.5977 -16.8301,17.5772 -16.8301,17.7323 0,0.1551 8.424,8.5973 18.72,18.7606 10.296,10.1631 18.72,18.6765 18.72,18.9185 0,0.36 -1.2674,0.4401 -6.9611,0.4401 h -6.9612 l -16.6377,-16.64 -16.6377,-16.6401 h -2.8011 -2.8012 v 16.6401 16.64 h -5.2813 -5.2813 z m 9.9184,19.8401 0.083,-16.5601 3.1431,-0.092 3.143,-0.092 16.8062,16.6519 16.8062,16.6519 h 6.2766 6.2765 l -18.801,-18.6025 c -10.3406,-10.2315 -18.7583,-18.7803 -18.7059,-18.9976 0.084,-0.3499 16.6538,-17.6806 29.2941,-30.64 l 4.6038,-4.72 -6.1813,0.01 -6.1813,0.01 -15.04,15.8408 -15.04,15.8408 -3.2,-0.087 -3.2,-0.087 -0.083,-15.76 -0.083,-15.76 h -4.637 -4.6369 v 36.48 36.4801 h 4.6371 4.6371 z m 57.2816,-19.8401 0.081,-37.04 h 24.48 24.48 l 0.089,4.56 0.089,4.56 h -19.5288 -19.5288 v 11.0374 11.0374 l 18.64,0.083 18.64,0.083 0.089,4.56 0.089,4.56 h -18.7288 -18.7288 v 12.1576 12.1575 l 19.44,0.082 19.44,0.082 0.089,4.56 0.089,4.56 h -24.6501 -24.6501 z m 48.5613,32.4001 v -4 h -19.5237 -19.5236 l 0.084,-12.72 0.084,-12.7201 18.64,-0.083 18.64,-0.083 v -3.9974 -3.9974 h -18.724 -18.724 l 0.084,-11.6 0.084,-11.6 19.44,-0.082 19.44,-0.082 v -3.9975 -3.9975 h -24 -24 v 36.48 36.4801 h 24 24 z m 4.5587,-32.4001 0.081,-37.04 16.8,-0.092 c 9.24,-0.051 18.96,0.055 21.6,0.2345 11.548,0.7855 16.6394,4.1622 19.1021,12.6687 0.6693,2.3119 0.7375,3.1882 0.7341,9.4288 0,6.0909 -0.087,7.2092 -0.7306,9.75 -0.3998,1.5785 -1.0855,3.4819 -1.5238,4.2298 -0.8263,1.41 -2.7321,2.9152 -4.946,3.9064 l -1.2818,0.5739 1.2859,0.5799 c 1.7003,0.7667 4.0248,3.2932 4.9403,5.3698 1.3234,3.0017 1.4598,4.5196 1.4598,16.246 v 11.1843 h -5.28 -5.28 v -9.36 c -10e-4,-5.148 -0.1532,-10.296 -0.3375,-11.44 -0.4472,-2.7766 -1.7527,-5.048 -3.5341,-6.1491 -2.9326,-1.8125 -3.9935,-1.9288 -19.086,-2.0898 l -13.84,-0.1477 v 14.5933 14.5933 h -5.1214 -5.1213 z m 9.5213,21.8076 v -14.5925 l 14.32,0.1527 c 15.6219,0.1665 16.6666,0.2757 19.5199,2.0398 1.6741,1.0351 3.0411,2.8275 3.6244,4.7525 0.2554,0.843 0.4358,4.8583 0.5283,11.76 l 0.1404,10.48 h 4.6135 4.6135 v -10.8128 c 0,-11.3657 -0.1279,-12.6538 -1.583,-15.9434 -0.9099,-2.0571 -3.0018,-4.1335 -4.9973,-4.9606 -1.5913,-0.6596 -2.3491,-1.5633 -1.3108,-1.5633 0.9823,0 4.3973,-2.0369 5.5968,-3.3382 1.4347,-1.5564 2.0258,-3.1713 2.8192,-7.7018 0.7294,-4.165 0.454,-12.8261 -0.5137,-16.1577 -2.3429,-8.0658 -7.2991,-11.3687 -18.2512,-12.1633 -2.376,-0.1723 -11.916,-0.3146 -21.2,-0.3162 h -16.88 v 36.48 36.4801 h 4.48 4.48 z m 0,-36.4476 v -13.92 l 13.04,0.01 c 15.3167,0.01 18.6793,0.2493 21.2,1.5109 2.9523,1.4775 3.9646,3.7421 4.4803,10.0232 0.6704,8.1644 -0.7218,12.633 -4.5382,14.5669 -3.124,1.5831 -4.7029,1.7191 -20.0221,1.7251 l -14.16,0.01 z m 30.1219,12.8191 c 4.6026,-0.9755 6.8451,-2.98 7.6739,-6.8591 0.5214,-2.4404 0.4307,-8.9781 -0.1641,-11.8311 -0.7167,-3.4372 -1.5945,-4.8301 -3.7117,-5.8897 -2.5073,-1.2549 -5.885,-1.5012 -20.72,-1.5109 l -12.56,-0.01 v 13.28 13.28 l 13.68,-0.01 c 10.5141,0 14.1711,-0.1096 15.8019,-0.4553 z m -296.0419,-41.6637 c -0.44,-0.065 -1.88,-0.2706 -3.2,-0.4578 -3.0847,-0.4374 -7.0712,-1.4786 -9.1684,-2.3945 -5.1196,-2.236 -7.5945,-8.3947 -7.4007,-18.417 l 0.089,-4.6061 h 4.96 4.96 l 0.2083,4.64 c 0.2245,5.0008 0.5779,7.0511 1.5408,8.9386 1.4419,2.8264 3.1779,3.195 15.5309,3.2984 10.473,0.088 12.4245,-0.091 15.0871,-1.3798 2.626,-1.2712 3.7097,-4.4618 3.7419,-11.0172 0.023,-4.6009 -0.426,-7.266 -1.4886,-8.8429 -1.6891,-2.5065 -4.3701,-3.0957 -15.3404,-3.3713 l -8.24,-0.2071 v -4.3797 -4.37974 l 4.3706,-0.20961 c 2.4039,-0.11529 5.8959,-0.21211 7.76,-0.21517 3.7203,-0.006 7.2229,-0.6125 8.7834,-1.5207 1.7187,-1.0002 2.502,-3.54399 2.6926,-8.74485 0.2909,-7.93706 -0.8683,-10.77607 -4.9088,-12.02317 -1.6573,-0.51151 -3.0939,-0.58572 -11.3378,-0.58572 -8.0173,0 -9.7464,0.0847 -11.4732,0.5619 -4.2973,1.18757 -5.1389,2.56611 -5.5125,9.02991 -0.1426,2.4685 -0.2672,4.88419 -0.2768,5.36819 l -0.018,0.88 h -4.81 c -4.1674,0 -4.8371,-0.0703 -5.0119,-0.52601 -0.3331,-0.86792 0.4883,-9.40215 1.1563,-12.01386 2.1965,-8.58841 6.8075,-11.64189 18.7921,-12.44458 5.1578,-0.34547 15.2902,0.059 19.6335,0.78372 9.3614,1.56205 11.8389,3.41406 13.8286,10.3373 0.6354,2.21096 0.7196,3.23242 0.721,8.74343 0,6.58777 -0.3296,8.73654 -1.788,11.59522 -0.9616,1.88491 -2.8389,3.78965 -4.4913,4.55697 l -1.4897,0.69177 1.9849,0.8648 c 5.0239,2.1886 6.7842,5.527 7.1372,13.5355 0.2134,4.8403 -0.2124,8.949 -1.3792,13.3087 -1.8939,7.0771 -5.4671,9.3587 -16.3974,10.47 -3.0372,0.3089 -17.3724,0.4075 -19.2461,0.1324 z m 18.9261,-0.7724 c 7.4125,-0.7536 11.0016,-2.0112 13.4209,-4.7024 2.65,-2.9479 3.968,-8.4443 3.971,-16.5606 0,-4.7252 -0.091,-5.7343 -0.7047,-7.68 -1.3584,-4.3055 -3.2943,-6.285 -7.5333,-7.703 -0.836,-0.2796 -1.52,-0.679 -1.52,-0.8876 0,-0.2085 0.7229,-0.6359 1.6065,-0.94971 4.4776,-1.59031 6.609,-5.88389 6.9405,-13.98115 0.3808,-9.30298 -1.5212,-15.32741 -5.6213,-17.80518 -2.987,-1.80505 -8.5059,-2.85579 -17.413,-3.3152 -13.0188,-0.67149 -21.22,0.82915 -24.9575,4.56666 -1.4543,1.45434 -3.1249,4.87302 -3.8678,7.91522 -0.4828,1.97677 -1.1666,7.92932 -1.1671,10.16 l -3e-4,1.04 h 4.32 c 4.2615,0 4.3202,-0.01 4.3375,-0.72 0.01,-0.396 0.1355,-2.76436 0.2798,-5.26302 0.2932,-5.0776 0.6961,-6.28827 2.6052,-7.82805 2.177,-1.75587 4.1982,-2.02893 15.0175,-2.02893 8.5678,0 9.9928,0.0718 11.6657,0.58803 3.9942,1.23248 5.2967,3.97811 5.2919,11.15514 0,6.37787 -0.9261,9.6334 -3.0836,10.89007 -1.5754,0.91759 -5.0732,1.51502 -8.914,1.5225 -1.936,0.004 -5.356,0.10049 -7.6,0.21494 l -4.08,0.20808 v 3.7906 3.7906 l 5.04,0.01 c 6.5029,0.012 12.5947,0.4721 14.7245,1.1121 2.0675,0.6211 3.6817,1.988 4.3652,3.6963 1.3411,3.3515 1.3424,12.1922 0,16.0917 -1.5588,4.5366 -5.3828,5.5276 -19.9721,5.1759 -9.5555,-0.2303 -11.2662,-0.4592 -13.0406,-1.7446 -2.2273,-1.6134 -3.2794,-5.5287 -3.2794,-12.2039 v -3.1765 h -4.5203 -4.5203 l 0.1658,5.52 c 0.2361,7.8581 1.4126,11.64 4.5415,14.5992 1.4105,1.3339 2.1378,1.7275 4.7225,2.5555 2.6254,0.841 6.4699,1.6365 10.0108,2.0715 2.2384,0.2749 15.7207,0.1865 18.7661,-0.1232 z m 193.5161,0.6488 c -12.2277,-1.8926 -16.6308,-6.2715 -18.2262,-18.1259 -0.562,-4.1761 -0.2081,-32.971 0.4575,-37.22586 0.7875,-5.03375 2.0684,-9.85282 3.1742,-11.9427 3.3665,-6.36215 12.0804,-8.75322 28.8268,-7.91 9.2386,0.46518 14.6252,1.5392 18.8474,3.75794 3.552,1.8665 5.5601,4.83643 7.0092,10.3665 0.6739,2.57176 0.71,3.42322 0.8335,19.64826 0.1686,22.16316 -0.2118,26.29206 -2.9563,32.08496 -2.1469,4.5315 -5.7314,7.2148 -11.6883,8.7495 -2.4964,0.6431 -3.6146,0.7079 -13.6,0.7882 -5.984,0.048 -11.689,-0.038 -12.6778,-0.1909 z m 25.9261,-1.2317 c 5.8989,-1.5217 9.1264,-3.8632 11.2321,-8.1485 2.9082,-5.9184 3.2965,-9.9018 3.124,-32.05156 -0.122,-15.66119 -0.1693,-16.79059 -0.8036,-19.2 -0.9011,-3.4232 -1.7909,-5.42226 -3.3088,-7.4335 -1.0286,-1.36297 -1.7518,-1.9083 -3.8975,-2.93894 -4.5689,-2.19458 -9.1888,-3.09742 -18.1748,-3.55179 -16.5625,-0.83747 -25.3809,1.69878 -28.3339,8.1491 -1.0321,2.25426 -2.2004,6.91016 -2.9133,11.6093 -0.4916,3.24066 -0.5714,6.04176 -0.5719,20.08579 -6e-4,17.3983 0.068,18.3522 1.6449,23.0061 1.9166,5.6547 5.0785,8.3507 11.8532,10.1068 4.3314,1.1228 6.058,1.2402 16.9013,1.1493 9.619,-0.081 10.7996,-0.1504 13.2483,-0.7821 z m -25.7283,-7.6111 c -5.6852,-1.2152 -7.6754,-3.9493 -8.5189,-11.7032 -0.4281,-3.9354 -0.1675,-33.86402 0.3166,-36.35157 1.2164,-6.2511 2.8325,-8.08171 8.1578,-9.24056 1.6977,-0.36944 4.1339,-0.49436 9.4845,-0.48632 9.7632,0.0147 15.0282,0.74477 17.6044,2.44124 1.4555,0.95851 2.6873,3.2636 3.3514,6.27145 1.1223,5.08357 0.9024,35.40236 -0.2918,40.23116 -1.4844,6.0023 -3.6977,7.7542 -11.224,8.8845 -4.3158,0.6481 -15.762,0.6198 -18.88,-0.047 z m 18.56,-0.5898 c 6.5928,-0.9828 8.975,-2.5131 10.3204,-6.6295 1.2716,-3.8906 1.436,-6.4444 1.4787,-22.96966 0.045,-17.43023 -0.062,-18.65909 -1.9553,-22.38146 -1.057,-2.07862 -2.4945,-2.94325 -6.1576,-3.70378 -5.5066,-1.14329 -19.3525,-1.21844 -23.2062,-0.12597 -4.0522,1.14875 -5.5439,3.08175 -6.5811,8.52769 -0.5026,2.63894 -0.7786,31.79788 -0.3392,35.83688 0.8408,7.7286 2.6558,10.1836 8.4618,11.4456 2.8151,0.612 13.8739,0.6121 17.9785,2e-4 z m -98.4,9.2317 c -5.2367,-0.623 -11.6146,-2.4595 -13.4795,-3.8814 -2.7099,-2.0662 -4.4586,-5.3408 -5.2287,-9.7914 -0.4998,-2.8879 -0.6553,-8.2605 -0.2918,-10.0781 l 0.2,-1 h 4.8565 4.8566 l 0.3619,4.24 c 0.6099,7.1447 1.635,9.1799 5.2955,10.5127 1.8627,0.6783 2.5947,0.7325 11.4862,0.8507 13.5865,0.1806 16.4618,-0.4625 18.2548,-4.0834 2.1743,-4.3907 1.8018,-14.4631 -0.6298,-17.0314 -0.7797,-0.8236 -2.5736,-1.578 -4.7217,-1.9857 -0.528,-0.1002 -4.7929,-0.3976 -9.4776,-0.6607 -11.1726,-0.6277 -18.8531,-1.943 -22.7739,-3.9001 -3.3311,-1.66278 -5.3973,-4.53387 -6.6796,-9.2816 -0.9428,-3.4909 -1.0227,-11.86662 -0.149,-15.62046 1.0316,-4.43232 3.0637,-7.6933 5.7896,-9.29074 4.9342,-2.89167 14.7239,-4.27629 25.9393,-3.66879 8.2212,0.44532 14.2651,1.76223 17.4975,3.81257 3.6624,2.32312 5.6857,7.76783 5.6913,15.31508 v 3.28813 l -5.04,-0.0881 -5.04,-0.0881 -0.2315,-2.55447 c -0.1273,-1.40495 -0.5204,-3.5059 -0.8736,-4.66877 -1.5331,-5.04722 -3.7637,-5.88252 -15.5349,-5.81726 -15.7445,0.0873 -18.2427,1.61087 -18.2345,11.1205 0.01,6.62083 1.2959,9.19292 5.2245,10.41587 1.7703,0.55108 3.5081,0.71317 10.29,0.95973 12.0954,0.43975 19.9024,1.59826 23.9392,3.55243 1.8877,0.91383 3.6714,2.72058 4.7108,4.77168 3.879,7.655 2.7303,24.6814 -2.0311,30.1043 -1.2479,1.4213 -4.3046,3.0687 -7.2448,3.9047 -2.0454,0.5815 -3.3357,0.6471 -13.9341,0.7082 -6.424,0.037 -12.184,0.01 -12.8,-0.066 z m 26.08,-1.1904 c 2.9849,-0.8476 5.7355,-2.256 7.1305,-3.651 1.5276,-1.5276 2.9524,-4.9792 3.7967,-9.1974 0.8456,-4.2249 0.7701,-12.8328 -0.1421,-16.2014 -1.4688,-5.4243 -3.7543,-8.0361 -8.2254,-9.39985 -5.5238,-1.68483 -10.2353,-2.27181 -21.5997,-2.69093 -6.7645,-0.24948 -8.5233,-0.41405 -10.2845,-0.9623 -3.7994,-1.18278 -5.2661,-3.69348 -5.6188,-9.61884 -0.2454,-4.12088 0.3044,-7.25294 1.6138,-9.19487 2.1275,-3.155 5.5225,-3.93714 17.3295,-3.9923 6.5341,-0.0305 8.4145,0.0626 10.2623,0.50805 2.5728,0.62029 4.2939,1.83119 5.2408,3.68726 0.7351,1.44083 1.6169,5.55287 1.6169,7.53963 v 1.45349 h 4.526 4.526 l -0.1753,-4.08 c -0.2821,-6.5691 -2.1055,-11.05216 -5.3935,-13.26041 -4.1519,-2.78841 -15.6911,-4.39858 -27.0032,-3.76799 -7.5692,0.42194 -14.2248,2.22447 -17.0071,4.60598 -1.6041,1.37309 -3.129,4.20525 -4.0067,7.44195 -0.9746,3.59368 -0.9816,11.94262 -0.013,15.50978 0.7769,2.86149 1.9262,5.25486 3.2443,6.75602 2.9678,3.38023 11.1709,5.32913 25.9176,6.15753 4.6778,0.2628 8.937,0.5598 9.465,0.66 3.8489,0.7305 5.9096,2.3591 6.5036,5.1399 1.0215,4.7824 0.6863,11.6331 -0.7198,14.7114 -0.9332,2.0429 -2.357,3.1464 -5.0019,3.8766 -1.7868,0.4932 -3.4922,0.5692 -12.7819,0.5692 -12.4803,0 -13.5304,-0.1662 -15.8766,-2.5123 -1.7039,-1.7039 -2.2925,-3.6065 -2.7622,-8.9277 l -0.3601,-4.08 h -4.2461 -4.246 l -0.2193,1.1691 c -0.332,1.7695 0.085,8.3404 0.6663,10.5046 1.5064,5.606 3.6983,8.0956 8.5351,9.6941 2.7086,0.8951 6.5953,1.7513 9.5489,2.1034 0.616,0.073 6.232,0.1023 12.48,0.064 9.5902,-0.059 11.6591,-0.1544 13.28,-0.6147 z m -352.72132,-35.9463 0.0813,-37.05416 16.31999,-0.0937 c 8.976,-0.0515 18.71213,0.0561 21.63584,0.23921 11.45194,0.71723 17.26413,3.56441 20.68017,10.13048 2.83175,5.44298 3.89477,11.0911 4.14885,22.04404 0.33382,14.39043 -1.1827,25.25903 -4.51215,32.33763 -1.92393,4.0903 -5.65414,6.8836 -11.40201,8.538 -2.32537,0.6693 -3.00067,0.6911 -24.71204,0.8004 l -22.32134,0.1124 z m 47.05972,35.3356 c 3.81825,-1.189 5.76497,-2.2287 7.83084,-4.1823 2.08361,-1.9704 3.22762,-4.1254 4.54597,-8.5631 2.21848,-7.4676 3.07023,-15.8146 2.78827,-27.32436 -0.25256,-10.30927 -1.15809,-15.35592 -3.74728,-20.88392 -3.18602,-6.80229 -9.00868,-9.86871 -20.18847,-10.632 -2.53424,-0.17303 -12.05972,-0.31673 -21.16772,-0.31934 l -16.55999,-0.005 v 36.49452 36.4945 l 21.83999,-0.1008 21.84,-0.1008 z M 227.2,1001.0387 v -28.53685 l 14.95999,0.16929 c 15.26468,0.17274 16.57885,0.27289 20.55038,1.56621 1.59851,0.52055 2.44426,1.04808 3.71079,2.31462 3.21618,3.21617 3.9479,7.00537 4.20598,21.78057 0.33337,19.08466 -0.95919,25.12756 -6.16664,28.82996 -2.84467,2.0224 -3.94247,2.139 -21.50051,2.2835 L 227.2,1029.5756 Z m 30.55999,27.518 c 3.55223,-0.5124 5.54053,-1.273 7.17881,-2.7459 4.24371,-3.8155 5.36668,-9.929 5.04732,-27.47826 -0.30263,-16.63004 -1.47028,-20.70044 -6.59839,-23.0018 -3.75763,-1.68633 -5.37086,-1.84122 -21.06774,-2.02289 l -14.48,-0.16757 v 27.87612 27.8761 l 13.84,-0.01 c 7.612,0 14.848,-0.1518 16.08,-0.3295 z m 28.39867,-27.4242 0.0813,-37.03996 h 5.12 5.12 l 0.0813,37.03996 0.0813,37.04 h -5.28268 -5.28267 z m 9.84133,-0.08 v -36.47996 h -4.64 -4.64 v 36.47996 36.48 h 4.64 4.64 z m 7.75866,0.08 0.0813,-37.03996 h 7.96548 7.96548 l 12.42921,29.6 c 6.83607,16.27996 12.47313,29.72456 12.52682,29.87686 0.0537,0.1523 5.69527,-13.0237 12.53685,-29.27998 6.84159,-16.25628 12.57974,-29.73936 12.75145,-29.96238 0.2403,-0.31211 2.12604,-0.3858 8.18844,-0.32 l 7.8763,0.0855 0.081,37.03996 0.081,37.04 h -5.2798 -5.2797 l -0.082,-30.442 -0.082,-30.44198 -8.6977,20.76201 c -4.78375,11.41907 -10.52628,25.11797 -12.76118,30.44197 l -4.06346,9.68 h -5.04696 -5.04696 l -8.70399,-20.4 c -4.7872,-11.22 -10.59753,-24.83314 -12.91186,-30.25146 l -4.20787,-9.85151 -0.0816,30.25147 -0.0816,30.2515 h -5.11972 -5.11971 z m 9.52134,5.52 c 0,-24.49305 0.0827,-30.87903 0.4,-30.87543 0.22,0.003 1.79865,3.2785 3.5081,7.28 1.70945,4.00151 6.51161,15.26747 10.67146,25.03543 4.15986,9.768 8.68133,20.352 10.04773,23.52 l 2.48435,5.76 h 4.56525 4.56525 l 2.15898,-5.12 c 1.18744,-2.816 3.24427,-7.712 4.57074,-10.88 1.32647,-3.168 5.24998,-12.528 8.71892,-20.8 3.46893,-8.27196 7.25101,-17.30796 8.40471,-20.07996 1.2115,-2.91083 2.2765,-5.04 2.5211,-5.04 0.3483,0 0.4234,5.50432 0.4234,31.03996 v 31.04 h 4.64 4.64 v -36.48 -36.47996 h -7.4806 -7.48058 l -0.72342,1.68 c -0.9255,2.14929 -7.37555,17.41849 -8.95536,21.2 -0.66174,1.584 -3.75733,8.928 -6.87908,16.31996 -3.12174,7.392 -6.21611,14.736 -6.87637,16.32 -0.66026,1.584 -1.38651,3.276 -1.61389,3.76 -0.43433,0.9245 -1.09317,1.1571 -1.35962,0.48 -0.14606,-0.3712 -3.18444,-7.633 -8.10073,-19.3609 -2.93096,-6.99184 -5.53877,-13.1981 -10.52118,-25.03906 -2.40685,-5.72 -4.82005,-11.516 -5.36269,-12.88 l -0.9866,-2.48 h -7.46993 -7.46994 v 36.47996 36.48 h 4.48 4.48 z m 141.19869,-5.52 0.081,-37.03996 7.4412,-0.0859 7.4412,-0.0859 2.0116,3.1259 c 1.1063,1.71924 9.9978,15.85352 19.7587,31.40951 l 17.7473,28.28355 0.16,-31.32355 0.16,-31.32361 h 4.96 4.96 l 0.081,37.04566 0.081,37.0457 -7.7281,-0.086 -7.728,-0.086 -19.5533,-30.8281 -19.5533,-30.8282 -0.082,30.9082 -0.082,30.9081 h -5.1198 -5.1197 z m 9.5213,5.2189 c 0,-19.81085 0.1133,-31.25108 0.3106,-31.37303 0.3162,-0.19545 1.0553,0.90968 9.092,13.59417 2.5089,3.96 7.3481,11.59196 10.7537,16.95996 3.4056,5.368 8.1979,12.928 10.6495,16.8 2.4516,3.872 5.6312,8.8756 7.0658,11.119 l 2.6084,4.0791 7.12,9e-4 7.12,10e-4 v -36.48 -36.47996 h -4.48 -4.48 v 31.86666 c 0,25.3325 -0.082,31.8393 -0.3996,31.7334 -0.3786,-0.1262 -2.3486,-3.1754 -12.3753,-19.1552 -2.3621,-3.7647 -6.1941,-9.86886 -8.5154,-13.56486 -2.3213,-3.696 -6.3448,-10.104 -8.9411,-14.24 -2.5963,-4.136 -6.0142,-9.572 -7.5955,-12.08 l -2.8749,-4.56 h -7.0091 -7.0091 v 36.47996 36.48 h 4.48 4.48 z m 124.5587,-5.2189 0.081,-37.03996 h 5.12 5.12 l 0.081,37.03996 0.081,37.04 h -5.2827 -5.2827 z m 9.8413,-0.08 v -36.47996 h -4.64 -4.64 v 36.47996 36.48 h 4.64 4.64 z m 72.7187,0.08 0.081,-37.03996 7.4431,-0.0859 7.4432,-0.0859 1.1968,1.85272 c 0.6583,1.019 9.5489,15.15247 19.7569,31.40773 l 18.56,29.55491 0.16,-31.32173 0.16,-31.32182 h 4.96 4.96 l 0.081,37.04565 0.081,37.0457 -7.7318,-0.086 -7.7318,-0.086 -19.5496,-30.8288 -19.5495,-30.82889 -0.082,30.90889 -0.082,30.9088 h -5.1198 -5.1197 z m 9.5213,5.2189 c 0,-19.81085 0.1132,-31.25108 0.3106,-31.37303 0.3163,-0.1955 1.0607,0.91756 9.0915,13.59417 10.7172,16.91696 21.4263,33.80236 27.3477,43.11996 l 3.7114,5.84 h 7.1294 7.1294 v -36.48 -36.47996 h -4.48 -4.48 v 31.86666 c 0,25.3325 -0.082,31.8393 -0.3996,31.7334 -0.3786,-0.1262 -2.3486,-3.1754 -12.3753,-19.1552 -2.3622,-3.7647 -6.1958,-9.86886 -8.5192,-13.56486 -2.3235,-3.696 -6.3489,-10.104 -8.9455,-14.24 -2.5966,-4.136 -6.0134,-9.572 -7.5927,-12.08 l -2.8717,-4.56 h -7.008 -7.008 v 36.47996 36.48 h 4.48 4.48 z m -292.48,-55.04283 c -4.2828,-0.56004 -8.9343,-1.57697 -12.8,-2.7984 -3.5227,-1.11308 -9.46819,-3.37679 -10.39999,-3.95975 -0.352,-0.22022 -15.976,-7.3428 -34.72,-15.82796 -18.744,-8.48517 -35.952,-16.36388 -38.24,-17.50825 -17.36394,-8.68482 -31.11397,-19.77306 -41.23707,-33.25419 -8.68949,-11.57198 -15.13934,-25.48979 -19.40016,-41.86268 -1.45686,-5.59819 -2.99358,-13.3515 -3.5609,-17.96596 -0.3646,-2.96562 -0.34795,-3.37369 0.19589,-4.8 1.31776,-3.45603 5.79516,-6.58251 12.84283,-8.96788 3.01638,-1.02093 3.97912,-1.19707 7.23436,-1.32357 2.30134,-0.0894 4.32894,-10e-4 5.23767,0.22744 0.8155,0.20534 8.34178,3.48009 16.72506,7.2772 8.38328,3.79712 15.53877,7.01674 15.90109,7.15471 0.56769,0.21617 0.7122,0.70859 1.04532,3.56205 0.9157,7.84361 3.1189,15.92582 5.99843,22.00456 3.98133,8.40467 10.89516,15.97396 19.97748,21.8714 4.72013,3.06493 10.25613,5.81204 27.04,13.41795 19.63377,8.89738 22.55656,10.16505 23.96336,10.39334 1.06822,0.17335 1.09351,0.1498 1.76409,-1.64249 0.37418,-1.0001 0.93058,-3.14028 1.23644,-4.75596 0.50974,-2.69262 0.55611,-6.31335 0.55611,-43.41759 0,-38.16255 -0.0338,-40.63572 -0.59086,-43.2 -1.37422,-6.32611 -3.86894,-12.85004 -8.08792,-21.15074 -5.95091,-11.70821 -11.61684,-18.60008 -19.67512,-23.93222 -3.41774,-2.26152 -4.64272,-2.83649 -44.2861,-20.78663 l -32.32,-14.63418 -0.0944,-15.66812 c -0.0622,-10.32618 0.0208,-16.06659 0.24349,-16.83687 0.8063,-2.78917 6.52207,-6.50246 13.61089,-8.8424 1.584,-0.52286 22.248,-5.58978 45.92,-11.25982 23.672,-5.67005 43.07291,-10.34055 43.11314,-10.3789 0.0402,-0.0384 -30.91977,-14.1094 -68.8,-31.26898 l -68.87314,-31.19926 -0.083,-15.77206 -0.083,-15.77206 0.87433,-1.60644 c 1.22849,-2.25714 3.56811,-4.17818 7.29173,-5.98718 6.94903,-3.37595 13.47265,-4.62309 17.92,-3.42581 1.54176,0.41506 207.21795,93.40403 208.12655,94.09679 0.3769,0.28743 0.4109,2.83306 0.2177,16.34267 l -0.2287,16.00221 -0.7847,1.34875 c -1.4742,2.53412 -6.6614,5.55412 -13.2509,7.71478 -1.672,0.54824 -5.776,1.64001 -9.12,2.42616 -10.3288,2.42822 -79.30692,19.07061 -79.39103,19.15472 -0.0436,0.0436 7.0735,3.30587 15.81583,7.24938 8.7424,3.94351 17.6458,7.99433 19.7853,9.00183 19.5466,9.20437 37.1883,26.13514 49.4152,47.42379 7.8107,13.59955 13.8175,28.29801 16.1385,39.49087 1.4651,7.06515 1.48,7.62688 1.3656,51.62972 l -0.1086,41.76 -0.733,4 c -1.234,6.7338 -3.7972,13.51976 -6.9999,18.5324 -0.6088,0.95283 -1.2737,1.90718 -1.4774,2.12079 -0.2038,0.21362 -0.5865,0.7162 -0.8505,1.11686 -2.2264,3.379 -7.1582,7.9004 -12.5159,11.47459 -8.4877,5.66216 -21.5245,10.7625 -32.4441,12.69294 -3.9969,0.70661 -14.0949,0.88138 -18.4,0.31845 z m 18.08,-0.96079 c 7.5849,-1.33477 17.0174,-4.48109 24.6914,-8.23608 16.7592,-8.20054 25.9871,-19.98026 29.2817,-37.37916 0.6891,-3.63918 0.6982,-4.14244 0.8173,-45.36799 0.1019,-35.24151 0.048,-42.24344 -0.3476,-45.28 -1.3302,-10.20669 -4.8292,-20.85961 -11.0598,-33.67201 -3.8092,-7.83325 -6.9782,-13.52306 -10.3006,-18.49439 -1.3873,-2.07591 -2.5224,-3.89991 -2.5224,-4.05333 0,-0.15342 -0.1254,-0.32695 -0.2788,-0.38562 -0.3397,-0.13 -3.5612,-4.36952 -3.5612,-4.68663 0,-0.12435 -0.288,-0.40594 -0.64,-0.62577 -0.352,-0.21983 -0.64,-0.53592 -0.64,-0.70243 0,-0.16651 -0.324,-0.65214 -0.72,-1.07919 -0.396,-0.42705 -1.224,-1.35863 -1.84,-2.07019 -2.1132,-2.44105 -10.529,-10.78261 -12.3844,-12.27519 -1.0206,-0.821 -2.3191,-1.901 -2.8857,-2.4 -0.5665,-0.49899 -1.9644,-1.55526 -3.1064,-2.34726 -1.1419,-0.792 -2.0824,-1.548 -2.0899,-1.68 -0.01,-0.132 -0.1634,-0.24 -0.3466,-0.24 -0.3788,0 -2.3317,-1.31567 -2.4937,-1.68 -0.059,-0.132 -0.3106,-0.24 -0.56,-0.24 -0.2493,0 -0.4533,-0.144 -0.4533,-0.32 0,-0.176 -0.1321,-0.32 -0.2936,-0.32 -0.1614,0 -1.3982,-0.65308 -2.7483,-1.45129 -3.9654,-2.34441 -7.6835,-4.12076 -25.7581,-12.30598 -9.41599,-4.26411 -17.38879,-7.89519 -17.71732,-8.06907 -0.5015,-0.26542 -0.52717,-0.38162 -0.16,-0.72431 0.33959,-0.31694 66.19082,-16.39685 82.83732,-20.22768 9.5378,-2.19489 17.9297,-6.31694 19.6557,-9.65472 0.3441,-0.66539 0.4899,-4.23778 0.6751,-16.54207 l 0.2362,-15.6934 -102.68347,-46.52284 c -56.47593,-25.58755 -103.40352,-46.79862 -104.28352,-47.1357 -3.77066,-1.44433 -9.25107,-0.85897 -15.52526,1.65825 -5.48925,2.20229 -8.80858,4.5933 -10.22149,7.36286 -0.63074,1.23634 -0.65325,1.80842 -0.65325,16.60485 v 15.32441 l 69.12,31.3115 c 38.9807,17.65833 69.12,31.48788 69.12,31.71601 0,0.51596 4.23728,-0.54444 -45.24393,11.32252 -23.56416,5.65133 -44.01216,10.70282 -45.44,11.22552 -6.48235,2.37306 -11.21992,5.41554 -12.24206,7.86187 -0.34505,0.82582 -0.43401,4.21294 -0.43401,16.52579 v 15.48707 l 35.50148,16.08377 c 19.52581,8.84608 36.62217,16.72252 37.99192,17.50322 6.10787,3.48119 11.3562,8.1422 15.6214,13.87325 6.58901,8.85354 13.21973,23.16349 15.41434,33.26617 0.55717,2.56491 0.59086,5.04632 0.59086,43.52 0,37.40815 -0.0462,41.04421 -0.55611,43.73759 -0.61562,3.25198 -1.63138,6.24768 -2.30915,6.81017 -0.76032,0.63102 -4.52267,-0.89423 -23.69132,-9.60443 -17.1581,-7.7966 -22.78769,-10.46789 -25.44342,-12.07309 -0.616,-0.37233 -1.732,-0.99798 -2.48,-1.39033 -0.748,-0.39234 -1.36,-0.83183 -1.36,-0.97663 0,-0.14481 -0.216,-0.26328 -0.48,-0.26328 -0.264,0 -0.48,-0.144 -0.48,-0.32 0,-0.176 -0.18,-0.3223 -0.4,-0.32511 -0.22,-0.003 -0.85329,-0.39882 -1.40731,-0.88 -0.55402,-0.48119 -1.32727,-1.09089 -1.71834,-1.35489 -1.98511,-1.34011 -8.95435,-8.04222 -8.95435,-8.61113 0,-0.19188 -0.13677,-0.34887 -0.30393,-0.34887 -0.566,0 -4.20165,-5.58005 -5.94487,-9.12428 -3.06652,-6.2347 -5.33672,-14.42555 -6.27379,-22.63572 -0.21595,-1.892 -0.51986,-3.44 -0.67537,-3.44 -0.15551,0 -7.14958,-3.11775 -15.54239,-6.92832 -8.3928,-3.81057 -15.89453,-7.12257 -16.6705,-7.36 -2.99632,-0.91679 -8.24015,-0.42648 -12.98915,1.21452 -6.22708,2.15175 -10.65884,5.29646 -11.8464,8.40603 -0.50461,1.3213 -0.52256,1.78407 -0.17186,4.43157 1.98645,14.99639 6.91236,31.26385 13.29814,43.9162 10.16749,20.14514 25.15971,35.06486 47.05737,46.82979 2.63052,1.4133 20.11875,9.50744 38.86275,17.98698 18.744,8.47955 35.232,15.96635 36.64,16.63735 7.54239,3.59436 16.11219,6.14908 24.15999,7.20225 4.2391,0.55474 13.7612,0.38257 17.76,-0.32113 z M 268.02515,858.2752 c -1.46091,-1.70674 -4.0818,-6.81699 -4.95248,-9.65637 -1.03134,-3.36335 -0.76885,-3.59694 0.41161,-0.36629 1.25101,3.42373 2.6511,6.25459 4.55015,9.2 0.76596,1.188 1.33478,2.16 1.26404,2.16 -0.0707,0 -0.64373,-0.60181 -1.27332,-1.33734 z m 159.98453,-53.14266 c -1.2075,-3.036 -3.0896,-7.536 -4.1822,-10 -1.9163,-4.32128 -2.912,-6.23822 -7.7292,-14.88 -2.9999,-5.38169 -6.333,-11.75505 -5.941,-11.36 0.3393,0.34195 7.3226,12.38881 10.583,18.2568 3.2196,5.79455 10.4291,23.5032 9.5685,23.5032 -0.057,0 -1.0915,-2.484 -2.2991,-5.52 z m 69.7503,146.45274 c -6.7101,-1.60458 -10.7221,-4.1694 -11.7172,-7.49059 -0.4059,-1.35504 2.0977,-303.31425 2.5183,-303.72647 0.1314,-0.12877 33.2149,-15.63237 73.5189,-34.45246 40.304,-18.82008 74.6486,-34.87247 76.3213,-35.67197 8.4891,-4.05758 19.0729,-7.44372 27.1987,-8.7019 4.7408,-0.73405 12.8662,-0.97877 17.2952,-0.52088 7.6928,0.79531 15.7149,3.12746 23.2691,6.76466 5.9114,2.8462 9.7081,5.45556 13.7089,9.4217 6.9781,6.91763 10.8505,15.21191 11.9544,25.60517 0.2485,2.33914 0.1238,27.1748 -0.4635,92.32 -0.873,96.844 -0.7438,92.06502 -2.7051,100 -2.2305,9.02367 -6.0524,18.26095 -11.3983,27.54903 -1.9445,3.37829 -7.3224,11.66136 -8.3338,12.83565 -0.7437,0.86355 -1.4137,1.74028 -2.0469,2.67861 -0.5884,0.872 -4.6263,5.91653 -5.6164,7.01671 -6.2593,6.95473 -13.0774,13.60331 -17.3924,16.96 -0.5656,0.44 -1.56,1.26894 -2.2098,1.8421 -0.6498,0.57316 -1.4334,1.12286 -1.7414,1.22157 -0.308,0.0987 -0.56,0.30201 -0.56,0.45179 0,0.14979 -0.54,0.60333 -1.2,1.00788 -0.66,0.40455 -1.5585,1.06429 -1.9967,1.4661 -0.4382,0.40181 -0.9662,0.73056 -1.1734,0.73056 -0.2071,0 -0.4246,0.11896 -0.4832,0.26436 -0.4071,1.00882 -15.1375,9.67738 -19.0302,11.19887 -0.8561,0.33461 -34.7485,16.12712 -75.3165,35.09446 -40.568,18.96735 -74.5963,34.83631 -75.6184,35.26436 -1.7993,0.75351 -5.3599,1.21065 -6.7816,0.87069 z m 3.9737,-0.76775 c 0.9135,-0.17325 2.5532,-0.74664 3.6437,-1.27419 6.0022,-2.90382 148.483,-69.32433 149.8226,-69.84309 0.88,-0.34078 2.32,-1.0225 3.2,-1.51494 0.88,-0.49244 2.248,-1.25241 3.04,-1.68882 3.1366,-1.72833 5.8996,-3.36128 7.7224,-4.56395 0.2667,-0.176 1.4103,-0.92908 2.5413,-1.6735 1.131,-0.74442 2.2302,-1.50042 2.4428,-1.68 0.2126,-0.17958 0.5212,-0.3265 0.6858,-0.3265 0.1646,0 0.3821,-0.216 0.4834,-0.48 0.1013,-0.264 0.4047,-0.48 0.6743,-0.48 0.2695,0 0.49,-0.11296 0.49,-0.25101 0,-0.13805 0.4519,-0.51794 1.0042,-0.8442 0.9151,-0.54059 1.3124,-0.85695 2.8626,-2.27965 0.2788,-0.25583 0.5963,-0.46514 0.7055,-0.46514 0.182,0 0.9154,-0.62885 2.639,-2.26266 0.3581,-0.33954 0.7638,-0.61734 0.9014,-0.61734 0.1377,0 0.7283,-0.468 1.3125,-1.04 4.0176,-3.93365 5.2221,-5.04 5.4869,-5.04 0.6522,0 10.9776,-11.7796 15.1468,-17.28 12.8944,-17.01181 21.0512,-35.08274 23.0383,-51.04 0.4635,-3.72263 1.9981,-179.72874 1.5974,-183.21891 -1.775,-15.46145 -10.3402,-27.19444 -25.0946,-34.37555 -4.6573,-2.26677 -5.0953,-2.44403 -9.76,-3.9501 -18.1881,-5.87233 -36.1684,-3.80255 -58.5487,6.73975 -1.4898,0.70176 -35.5458,16.60877 -75.68,35.3489 -40.1342,18.74013 -73.0069,34.10778 -73.0505,34.15032 -0.044,0.0425 -0.6711,67.95014 -1.3944,150.90576 -1.0191,116.87033 -1.2304,151.1114 -0.9386,152.08535 0.8465,2.82519 5.1134,5.72678 9.9716,6.78085 2.5476,0.55274 2.9977,0.56865 5.0543,0.17862 z m 75.8765,-90.32499 c 0.015,-16.22019 1.8241,-217.54614 1.9551,-217.63519 0.3057,-0.20789 39.1454,-18.20173 41.2144,-19.09406 5.3286,-2.2981 8.93,-3.19075 12.8728,-3.19075 2.4863,0 2.6029,0.0342 3.549,1.04 1.4083,1.49701 2.4669,4.01964 3.0278,7.21466 0.4407,2.5107 0.4219,11.19406 -0.1907,88.06534 -0.3738,46.904 -0.8263,87.584 -1.0055,90.4 -0.4958,7.78959 -1.5495,11.87619 -4.7856,18.56 -4.0701,8.40653 -12.6469,19.54265 -19.7164,25.6 -3.9215,3.35997 -3.612,3.11464 -4.8511,3.845 -0.572,0.33714 -1.04,0.72594 -1.04,0.86399 0,0.13805 -0.216,0.25101 -0.48,0.25101 -0.264,0 -0.48,0.144 -0.48,0.32 0,0.176 -0.1591,0.32 -0.3536,0.32 -0.1945,0 -0.9505,0.3961 -1.68,0.88023 -2.4552,1.62934 -26.675,13.19977 -27.6304,13.19977 -0.3332,0 -0.414,-2.11801 -0.4058,-10.64 z m 22.5498,-0.43796 c 3.7539,-1.88358 10.6044,-6.13602 11.9972,-7.44725 0.3008,-0.28314 1.2466,-1.09079 2.1018,-1.79479 1.8972,-1.56176 4.9747,-4.64505 6.701,-6.71371 0.704,-0.84359 1.568,-1.87555 1.92,-2.29324 0.8188,-0.9716 1.4666,-1.80797 2.938,-3.79305 0.6523,-0.88 1.2701,-1.672 1.373,-1.76 0.7347,-0.62861 5.1535,-8.00186 6.5629,-10.95096 3.0999,-6.48654 4.1717,-10.71696 4.6438,-18.32904 0.5163,-8.32404 1.7652,-174.30782 1.3334,-177.21109 -0.4386,-2.94902 -1.3607,-5.49201 -2.6235,-7.23526 l -0.9516,-1.31365 h -2.3771 c -3.9685,0 -7.2957,0.8816 -13.6189,3.60863 -3.448,1.48701 -39.6853,18.37004 -39.9089,18.5936 -0.1212,0.12119 -1.9941,205.36857 -2.0054,219.76782 l -0.01,7.25005 8.88,-4.14536 c 4.884,-2.27995 10.752,-5.08467 13.04,-6.2327 z m 29.28,3.33893 c 0.088,-0.0967 1.6,-1.32967 3.36,-2.74001 8.9173,-7.14569 19.2275,-20.70052 22.5984,-29.71019 0.8527,-2.27908 1.141,-2.0176 0.4471,0.4055 -1.1138,3.88904 -6.0958,12.16735 -10.8471,18.02373 -4.3537,5.36644 -10.6846,11.27503 -14.3773,13.41836 -0.7376,0.4281 -1.2691,0.69927 -1.1811,0.60261 z m 4.6658,-8.10097 c 5.2363,-5.87397 7.659,-9.01887 12.449,-16.16 4.389,-6.5434 6.9937,-10.0634 8.0745,-10.91196 0.4989,-0.39164 0.5247,-0.38762 0.2053,0.032 -2.9613,3.89054 -5.1507,6.96249 -8.6667,12.16 -4.4284,6.54623 -7.6905,10.61853 -12.5603,15.68 -2.9183,3.0332 -2.9172,3.03141 0.4982,-0.8 z M 456.97908,616.56171 c -11.0464,-5.38815 -20.3909,-10.13894 -20.8978,-10.62461 -2.5184,-2.41271 -3.7885,-7.4791 -3.2054,-12.78596 0.4164,-3.78995 1.2878,-6.24043 2.8811,-8.10181 1.4387,-1.68076 -1.4623,-0.27869 48.3755,-23.38046 l 37.5725,-17.41633 -3.1725,-0.10463 c -1.7449,-0.0575 -27.6813,0.13736 -57.6366,0.43314 l -54.464,0.53776 -0.9327,-0.6641 c -0.5129,-0.36525 -1.2761,-1.42416 -1.6959,-2.35313 -0.7156,-1.58361 -0.7614,-2.0386 -0.7336,-7.28904 0.024,-4.59404 0.5825,-11.08726 3.1069,-36.14642 1.6925,-16.80052 3.039,-30.58461 2.9924,-30.63129 -0.047,-0.0467 -26.7888,12.30885 -59.42695,27.45674 -32.63812,15.14789 -60.13404,27.75109 -61.10204,28.00711 -0.968,0.25602 -2.624,1.02478 -3.68,1.70836 -2.3447,1.51781 -7.11939,3.8455 -7.88808,3.8455 -0.30907,0 -4.63761,-1.98813 -9.61897,-4.41806 -10.02415,-4.88981 -10.72565,-5.40869 -12.16315,-8.99655 -0.63289,-1.57961 -0.71533,-2.35708 -0.71533,-6.74539 0,-4.43568 0.0782,-5.1556 0.73963,-6.81034 1.15301,-2.88451 2.47655,-4.39209 5.01286,-5.7099 4.91614,-2.55432 212.88313,-98.83976 213.48413,-98.83976 1.1264,0 6.9751,3.06107 7.8616,4.11459 0.4607,0.54748 1.1511,1.82567 1.5342,2.84042 1.4134,3.74364 1.3091,5.71056 -2.6604,50.16499 -1.9958,22.352 -3.5934,40.68993 -3.55,40.75097 0.043,0.061 4.0848,-0.12057 8.9811,-0.40356 26.3244,-1.52145 45.7048,-1.90932 83.3024,-1.66714 17.16,0.11053 47.544,0.28535 67.52,0.38849 l 36.32,0.18753 9.7571,4.69185 c 10.8867,5.23505 11.8855,5.93818 13.1192,9.23529 0.9851,2.63315 1.3713,6.34937 1.0027,9.6505 -0.4424,3.96246 -1.3817,6.23859 -3.3672,8.15924 -1.5426,1.49224 -7.4575,4.28132 -108.1918,51.01615 -58.608,27.19068 -106.992,49.48449 -107.52,49.54179 -0.7324,0.0795 -5.6969,-2.20636 -20.9409,-9.64194 z m 128.1409,-40.54707 c 118.0444,-54.75952 108.7245,-50.185 110.1823,-54.08121 2.2131,-5.91507 1.1101,-14.20287 -2.2726,-17.07592 -0.5663,-0.48099 -5.2777,-2.96608 -10.4697,-5.5224 l -9.44,-4.64786 -21.76,-0.0962 c -11.968,-0.0529 -33.712,-0.24165 -48.32,-0.41941 -56.893,-0.69231 -84.8021,-0.33667 -117.0382,1.4914 -5.235,0.29688 -9.5786,0.47896 -9.6523,0.40464 -0.074,-0.0743 1.5406,-19.16298 3.5874,-42.41924 3.527,-40.07399 3.7019,-42.43926 3.3469,-45.25222 -0.257,-2.03587 -0.6557,-3.52963 -1.2692,-4.75589 -0.873,-1.74467 -0.9833,-1.83276 -4.5746,-3.65308 l -3.68,-1.8653 -105.59999,49.00025 c -58.08,26.95014 -106.49034,49.41344 -107.57853,49.91844 -2.2397,1.03939 -3.47404,2.47744 -4.63984,5.40557 -0.62716,1.57522 -0.72048,2.40003 -0.72936,6.44634 -0.009,4.15081 0.0697,4.8384 0.74744,6.52186 1.48052,3.67755 1.93463,3.97285 17.37392,11.29774 l 3.73362,1.77135 2.98638,-1.36904 c 1.6425,-0.75297 3.77837,-1.91776 4.74637,-2.58842 0.968,-0.67067 2.552,-1.42439 3.52,-1.67496 0.968,-0.25056 28.328,-12.79963 60.8,-27.88682 32.47199,-15.08719 59.43599,-27.5017 59.91999,-27.5878 0.647,-0.11509 0.88,-0.026 0.88,0.33648 0,0.3973 -2.9044,30.01093 -5.9529,60.69607 -0.6952,6.99796 -0.5172,11.09392 0.587,13.50579 0.4539,0.99155 1.1374,1.96983 1.5188,2.17395 0.5271,0.28212 14.6186,0.23541 58.7521,-0.19474 57.0817,-0.55636 59.5421,-0.5419 58.6555,0.34472 -0.086,0.0863 -19.4447,9.10053 -43.0187,20.0317 -25.5638,11.85384 -43.2256,20.21937 -43.7633,20.72849 -2.4505,2.32024 -3.9017,8.51921 -3.1616,13.50523 0.4218,2.84232 1.8968,6.0371 3.3061,7.1609 1.5982,1.27453 40.3211,20.02963 41.077,19.89533 0.352,-0.0625 48.592,-22.35811 107.2,-49.54573 z m -107.36,27.45678 c 0,-0.60561 0.144,-1.19011 0.32,-1.29888 0.1933,-0.11944 0.32,0.31667 0.32,1.10111 0,0.71439 -0.144,1.29889 -0.32,1.29889 -0.176,0 -0.32,-0.4955 -0.32,-1.10112 z m -73.1346,-78.09888 c 0.5654,-2.55806 2.9334,-5.68208 3.8104,-5.02681 0.2007,0.14995 32.3323,-0.0478 71.5642,-0.44044 89.3259,-0.89396 97.28,-0.96243 97.28,-0.83732 0,0.31522 -10.5881,4.94316 -10.8074,4.72381 -0.067,-0.0671 1.7971,-1.06768 4.1427,-2.22356 l 4.2647,-2.10161 -5.44,-0.003 c -2.992,-0.002 -40.576,0.35144 -83.52,0.78525 l -78.08,0.78875 -0.8607,1.04771 c -0.4734,0.57624 -1.2445,1.76771 -1.7134,2.64771 -0.6507,1.22099 -0.8024,1.37259 -0.6405,0.64 z M 277.11999,506.21031 c 0,-0.616 0.144,-1.209 0.32,-1.31777 0.19006,-0.11746 0.32,0.25705 0.32,0.92223 0,0.616 -0.144,1.20899 -0.32,1.31777 -0.19005,0.11746 -0.32,-0.25705 -0.32,-0.92223 z m 135.06259,-58.12886 c -0.053,-1.14995 1.7681,-5.53628 2.9027,-6.99207 0.8815,-1.13114 0.7359,-0.63838 -0.6903,2.33557 -0.7067,1.47378 -1.4886,3.23489 -1.7374,3.91359 -0.2489,0.6787 -0.4626,1.01301 -0.475,0.74291 z"
       id="path1" />
  </g>
</svg>
