<?xml version="1.0" standalone="no"?>
<!DOCTYPE svg PUBLIC "-//W3C//DTD SVG 20010904//EN"
 "http://www.w3.org/TR/2001/REC-SVG-20010904/DTD/svg10.dtd">
<svg version="1.0" xmlns="http://www.w3.org/2000/svg"
 width="3122.000000pt" height="4416.000000pt" viewBox="0 0 3122.000000 4416.000000"
 preserveAspectRatio="xMidYMid meet">

<g transform="translate(0.000000,4416.000000) scale(0.100000,-0.100000)"
fill="#000000" stroke="none">
<path d="M0 22080 l0 -22070 15610 0 15610 0 0 22070 0 22070 -15610 0 -15610
0 0 -22070z m17920 6322 c-93 -45 -97 -46 -205 -49 -60 -2 -1073 -12 -2250
-23 -1177 -10 -2288 -22 -2468 -25 l-329 -6 19 31 c10 17 26 39 36 48 17 15
231 19 2600 43 1420 14 2607 26 2637 27 l55 1 -95 -47z m-4987 -7602 c293
-112 666 -574 778 -963 30 -103 37 -281 15 -379 -29 -132 -103 -258 -150 -258
-44 0 -71 50 -221 405 -110 262 -205 454 -365 740 -138 248 -211 398 -218 449
l-5 39 54 -5 c30 -3 80 -15 112 -28z m7555 -2070 c-10 -97 -146 -337 -317
-558 -93 -120 -246 -280 -340 -354 -73 -58 -191 -126 -191 -110 0 5 59 76 132
158 191 217 276 326 411 529 182 272 269 385 297 385 9 0 11 -15 8 -50z
m-12086 -311 c125 -42 239 -143 279 -247 26 -69 29 -177 5 -241 -31 -85 -104
-161 -154 -161 -33 0 -92 33 -129 72 -54 56 -128 190 -163 294 -37 113 -47
237 -20 269 33 40 93 44 182 14z"/>
</g>
</svg>
